<svg xmlns="http://www.w3.org/2000/svg" width="33.793" height="43.04" viewBox="0 0 33.793 43.04">
  <g id="apple" transform="translate(-46.022 1.84)">
    <path id="Path_160003" data-name="Path 160003" d="M57.226,149.665c-6.132-.035-11.2-12.552-11.2-18.927,0-10.413,7.811-12.692,10.822-12.692a12.452,12.452,0,0,1,4.083,1,9.127,9.127,0,0,0,2.332.668,7.256,7.256,0,0,0,1.673-.542,13.405,13.405,0,0,1,5.041-1.219h.012a10.333,10.333,0,0,1,8.647,4.367l.631.948-.908.685c-1.3.978-3.662,2.763-3.662,6.3a7.108,7.108,0,0,0,3.966,6.571c.568.342,1.156.694,1.156,1.465,0,.5-4.017,11.311-9.851,11.311a7.922,7.922,0,0,1-3.326-.807,6.745,6.745,0,0,0-2.961-.713,7.616,7.616,0,0,0-2.344.634,11.483,11.483,0,0,1-4.066.949Z" transform="translate(0 -108.466)"/>
    <path id="Path_160004" data-name="Path 160004" d="M263.581,0c.165,5.987-4.1,10.14-8.36,9.879C254.519,5.1,259.481,0,263.581,0Z" transform="translate(-193.216 -1.84)"/>
  </g>
</svg>
