<svg xmlns="http://www.w3.org/2000/svg" width="58" height="58" viewBox="0 0 58 58">
  <g id="compare" transform="translate(0)">
    <path id="Path_27233" data-name="Path 27233" d="M29,0A29,29,0,1,0,58,29,29,29,0,0,0,29,0Z" transform="translate(0)"/>
    <g id="Path_27233-2" data-name="Path 27233" transform="translate(0)" fill="#fff">
      <path d="M 29.00000190734863 57 C 25.21958160400391 57 21.55278205871582 56.25982284545898 18.10144233703613 54.80003356933594 C 14.76734161376953 53.38983154296875 11.77280235290527 51.37078094482422 9.201011657714844 48.79899215698242 C 6.62922191619873 46.22720336914062 4.610171794891357 43.23266220092773 3.199971914291382 39.89856338500977 C 1.740181922912598 36.44722366333008 1.000001907348633 32.78042221069336 1.000001907348633 29.00000190734863 C 1.000001907348633 25.21958160400391 1.740181922912598 21.55278205871582 3.199971914291382 18.10144233703613 C 4.610171794891357 14.76734161376953 6.62922191619873 11.77280235290527 9.201011657714844 9.201011657714844 C 11.77280235290527 6.62922191619873 14.76734161376953 4.610171794891357 18.10144233703613 3.199971914291382 C 21.55278205871582 1.740181922912598 25.21958160400391 1.000001907348633 29.00000190734863 1.000001907348633 C 32.78042221069336 1.000001907348633 36.44722366333008 1.740181922912598 39.89856338500977 3.199971914291382 C 43.23266220092773 4.610171794891357 46.22720336914062 6.62922191619873 48.79899215698242 9.201011657714844 C 51.37078094482422 11.77280235290527 53.38983154296875 14.76734161376953 54.80003356933594 18.10144233703613 C 56.25982284545898 21.55278205871582 57 25.21958160400391 57 29.00000190734863 C 57 32.78042221069336 56.25982284545898 36.44722366333008 54.80003356933594 39.89856338500977 C 53.38983154296875 43.23266220092773 51.37078094482422 46.22720336914062 48.79899215698242 48.79899215698242 C 46.22720336914062 51.37078094482422 43.23266220092773 53.38983154296875 39.89856338500977 54.80003356933594 C 36.44722366333008 56.25982284545898 32.78042221069336 57 29.00000190734863 57 Z" stroke="none"/>
      <path d="M 29.00000190734863 2.000003814697266 C 25.35414123535156 2.000003814697266 21.81840133666992 2.713600158691406 18.49099349975586 4.1209716796875 C 15.27609252929688 5.480762481689453 12.38839340209961 7.427841186523438 9.908123016357422 9.908123016357422 C 7.427841186523438 12.38839340209961 5.480762481689453 15.27609252929688 4.1209716796875 18.49099349975586 C 2.713600158691406 21.81840133666992 2.000003814697266 25.35414123535156 2.000003814697266 29.00000190734863 C 2.000003814697266 32.6458625793457 2.713600158691406 36.18160247802734 4.1209716796875 39.50901031494141 C 5.480762481689453 42.72391128540039 7.427841186523438 45.61161041259766 9.908123016357422 48.09188079833984 C 12.38839340209961 50.57216262817383 15.27609252929688 52.51924133300781 18.49099349975586 53.87903213500977 C 21.81840133666992 55.28640365600586 25.35414123535156 56 29.00000190734863 56 C 32.6458625793457 56 36.18160247802734 55.28640365600586 39.50901031494141 53.87903213500977 C 42.72391128540039 52.51924133300781 45.61161041259766 50.57216262817383 48.09188079833984 48.09188079833984 C 50.57216262817383 45.61161041259766 52.51924133300781 42.72391128540039 53.87903213500977 39.50901031494141 C 55.28640365600586 36.18160247802734 56 32.6458625793457 56 29.00000190734863 C 56 25.35414123535156 55.28640365600586 21.81840133666992 53.87903213500977 18.49099349975586 C 52.51924133300781 15.27609252929688 50.57216262817383 12.38839340209961 48.09188079833984 9.908123016357422 C 45.61161041259766 7.427841186523438 42.72391128540039 5.480762481689453 39.50901031494141 4.1209716796875 C 36.18160247802734 2.713600158691406 32.6458625793457 2.000003814697266 29.00000190734863 2.000003814697266 M 29.00000190734863 3.814697265625e-06 C 45.01626205444336 3.814697265625e-06 58 12.98374176025391 58 29.00000190734863 C 58 45.01626205444336 45.01626205444336 58 29.00000190734863 58 C 12.98374176025391 58 3.814697265625e-06 45.01626205444336 3.814697265625e-06 29.00000190734863 C 3.814697265625e-06 12.98374176025391 12.98374176025391 3.814697265625e-06 29.00000190734863 3.814697265625e-06 Z" stroke="none" fill="#000"/>
    </g>
    <g id="Group_10150" data-name="Group 10150" transform="translate(-0.483 -0.874)">
      <path id="Path_28418" data-name="Path 28418" d="M45.29,2.468h6.56a2.549,2.549,0,0,1,2.624,2.468V22.214a2.549,2.549,0,0,1-2.624,2.468H45.29V27.15H42.666V0H45.29Zm0,18.511h6.56l-6.56-7.4Z" transform="translate(-12.632 16.279)"/>
      <path id="Path_28419" data-name="Path 28419" d="M279.957,42.667h6.56v2.468h-6.56V61.178l6.56-7.4V64.881h-6.56a2.549,2.549,0,0,1-2.624-2.468V45.135A2.549,2.549,0,0,1,279.957,42.667Z" transform="translate(-260.395 -23.93)"/>
    </g>
  </g>
</svg>
