<svg xmlns="http://www.w3.org/2000/svg" width="57.044" height="57.044" viewBox="0 0 57.044 57.044">
  <path id="Control_Centre_19371" d="M125.333,93.455h-1.4C120.824,82.671,112.858,75,103.522,75s-17.3,7.671-20.413,18.455h-1.4A6.711,6.711,0,0,0,75,100.166v6.711a6.711,6.711,0,0,0,6.711,6.711h1.4c3.112,10.785,11.077,18.455,20.413,18.455s17.3-7.671,20.413-18.455h1.4a6.711,6.711,0,0,0,6.711-6.711v-6.711A6.711,6.711,0,0,0,125.333,93.455Zm-6.221,23.489H108.268a5.033,5.033,0,1,0,0,3.356h8.973q-.46.7-.962,1.352a19.14,19.14,0,0,1-5.891,5.215,13.845,13.845,0,0,1-13.731,0,19.141,19.141,0,0,1-5.892-5.215,26.76,26.76,0,0,1-4.147-8.06,33.456,33.456,0,0,1,0-20.139q.408-1.261.911-2.446a2.3,2.3,0,0,1,2.44-1.372c2.6.371,7.268,1.8,13.553,6.773,7.615,6.031,15.707,4.369,18.2,2.934a34.082,34.082,0,0,1,.256,4.18,32.667,32.667,0,0,1-1.551,10.069A29.171,29.171,0,0,1,119.112,116.944Z" transform="translate(-75 -75)" fill="#fff" fill-rule="evenodd"/>
</svg>
