<svg id="copyright-symbol" xmlns="http://www.w3.org/2000/svg" width="386.923" height="18" viewBox="0 0 386.923 18">
  <text id="All_Rights_Reserved_Orange_Jordan_2020" data-name="All Rights Reserved Orange Jordan 2020" transform="translate(88.923 12)" fill="#999" font-size="16" font-family="HelveticaNeue-Roman, Helvetica Neue"><tspan x="0" y="0">All Rights Reserved </tspan><tspan y="0" font-family="HelveticaNeue-Bold, Helvetica Neue" font-weight="700">Orange Jordan 2020</tspan></text>
  <text id="Orange" transform="translate(17.923 13)" fill="#fff" font-size="18" font-family="HelveticaNeue-Bold, Helvetica Neue" font-weight="700" letter-spacing="0.02em"><tspan x="0" y="0">Orange</tspan></text>
  <path id="Path_2099" data-name="Path 2099" d="M6.926,1.3A5.627,5.627,0,1,1,1.3,6.926,5.616,5.616,0,0,1,6.926,1.3Zm0-1.3a6.926,6.926,0,1,0,6.926,6.926A6.946,6.946,0,0,0,6.926,0Z" fill="#fff"/>
  <path id="Path_2100" data-name="Path 2100" d="M9.041,9.387A2.733,2.733,0,0,1,7.4,9.993,2.551,2.551,0,0,1,4.8,7.4,2.551,2.551,0,0,1,7.4,4.8a2.358,2.358,0,0,1,1.818.779l.952-.952A4,4,0,0,0,7.4,3.5a3.9,3.9,0,0,0,0,7.792,3.937,3.937,0,0,0,2.424-.866L9.041,9.387Z" transform="translate(-0.47 -0.47)" fill="#fff"/>
</svg>
