<svg xmlns="http://www.w3.org/2000/svg" width="57.335" height="57.335" viewBox="0 0 57.335 57.335">
  <path id="dollar" d="M161.668,248.2a28.668,28.668,0,1,0,28.668,28.668A28.668,28.668,0,0,0,161.668,248.2Zm8.89,40.258a11.677,11.677,0,0,1-6.353,3.414V294.9a2.808,2.808,0,0,1-.6,1.828,2.03,2.03,0,0,1-1.666.74,2.1,2.1,0,0,1-1.7-.752,2.735,2.735,0,0,1-.631-1.817v-2.742a19.174,19.174,0,0,1-5.172-1.088q-3.646-1.4-3.646-3.888a3.861,3.861,0,0,1,.874-2.442,2.651,2.651,0,0,1,2.158-1.111,4.829,4.829,0,0,1,1.608.231l2.523.856a13.006,13.006,0,0,0,3.459.66,4.744,4.744,0,0,0,2.823-.856,2.784,2.784,0,0,0,1.2-2.407,2.532,2.532,0,0,0-1.516-2.326,28.713,28.713,0,0,0-4.362-1.516q-2.558-.718-3.848-1.221a7.341,7.341,0,0,1-2.413-1.58,7.846,7.846,0,0,1-1.823-2.679,8.145,8.145,0,0,1-.642-3.153,10.135,10.135,0,0,1,.336-2.586,9.58,9.58,0,0,1,.989-2.4,9.932,9.932,0,0,1,1.614-2.071,12.056,12.056,0,0,1,5.832-2.847v-2.742a2.735,2.735,0,0,1,.631-1.817,2.1,2.1,0,0,1,1.7-.752,2.039,2.039,0,0,1,1.644.746,2.744,2.744,0,0,1,.625,1.823v2.7q6.689,1.076,6.689,4.409a3.255,3.255,0,0,1-1.018,2.418,3.369,3.369,0,0,1-2.441,1,4,4,0,0,1-.862-.093q-.422-.092-1.093-.307t-.984-.306a8.037,8.037,0,0,0-2.557-.475,4.343,4.343,0,0,0-2.326.665,2.356,2.356,0,0,0-1.193,1.845,1.9,1.9,0,0,0,.781,1.655,6.475,6.475,0,0,0,2.067.9q2.21.614,3.981,1.273a17.631,17.631,0,0,1,4.166,1.973,7.85,7.85,0,0,1,2.6,2.858,9.022,9.022,0,0,1,.92,4.276A9.776,9.776,0,0,1,170.558,288.458Z" transform="translate(-133 -248.2)" fill="#fff" fill-rule="evenodd"/>
</svg>
