<svg xmlns="http://www.w3.org/2000/svg" width="67.687" height="55.117" viewBox="0 0 67.687 55.117">
  <path id="E_shop" data-name="E shop" d="M108.844,198.993a5.974,5.974,0,1,1-5.972-6.124A6.05,6.05,0,0,1,108.844,198.993Zm23.89,0a5.974,5.974,0,1,1-5.972-6.124A6.05,6.05,0,0,1,132.733,198.993Zm9.954-39.806a3.034,3.034,0,0,0-2.986-3.062H91.956l-1.708-4.215a3,3,0,0,0-2.7-1.885,1.6,1.6,0,0,0-.263-.024h-9.3A3.034,3.034,0,0,0,75,153.062h0a3.034,3.034,0,0,0,2.986,3.062h6.5a1.508,1.508,0,0,1,1.393.953L97.106,184.8a2.99,2.99,0,0,0,2.727,1.94h31.991a.9.9,0,0,0,.106-.007,3.009,3.009,0,0,0,2.715-2.354l7.74-23.834c.007-.022.013-.045.02-.067a3.1,3.1,0,0,0,.283-1.3Z" transform="translate(-75 -150)" fill="#fff" fill-rule="evenodd"/>
</svg>
