<svg xmlns="http://www.w3.org/2000/svg" width="84" height="85" viewBox="0 0 84 85">
  <g id="Group_13381" data-name="Group 13381" transform="translate(-0.424)">
    <ellipse id="Ellipse_26" data-name="Ellipse 26" cx="42" cy="42.5" rx="42" ry="42.5" transform="translate(0.424)" fill="#ffddbf"/>
    <path id="Mobile_network" data-name="Mobile network" d="M106.153,303.751A1.152,1.152,0,0,0,107.307,305h5.769a1.157,1.157,0,0,0,1.154-1.154V276.154A1.157,1.157,0,0,0,113.076,275h-5.769a1.157,1.157,0,0,0-1.154,1.154Zm-10.384.094A1.157,1.157,0,0,0,96.922,305h5.769a1.157,1.157,0,0,0,1.154-1.154V283.077a1.157,1.157,0,0,0-1.154-1.154H96.922a1.157,1.157,0,0,0-1.154,1.154Zm-10.384,0A1.157,1.157,0,0,0,86.538,305h5.769a1.157,1.157,0,0,0,1.154-1.154V290a1.157,1.157,0,0,0-1.154-1.154H86.538A1.157,1.157,0,0,0,85.384,290Zm-10.384,0A1.157,1.157,0,0,0,76.154,305h5.769a1.157,1.157,0,0,0,1.154-1.154v-6.923a1.157,1.157,0,0,0-1.154-1.154H76.154A1.157,1.157,0,0,0,75,296.922Z" transform="translate(-54.855 -248.493)" fill="#ff7900" fill-rule="evenodd"/>
  </g>
</svg>
