<svg xmlns="http://www.w3.org/2000/svg" width="84" height="84" viewBox="0 0 84 84">
  <g id="Group_13384" data-name="Group 13384" transform="translate(-0.424 -0.407)">
    <circle id="Ellipse_26" data-name="Ellipse 26" cx="42" cy="42" r="42" transform="translate(0.424 0.407)" fill="#ffddbf"/>
    <path id="Shop_19371" d="M101.064,104.254H132.97v-3.191A1.064,1.064,0,0,0,131.907,100h-29.78a1.064,1.064,0,0,0-1.064,1.064Zm30.843,13.826a3.178,3.178,0,0,1-2.127-.814,3.185,3.185,0,0,1-4.254,0,3.185,3.185,0,0,1-4.254,0,3.185,3.185,0,0,1-4.254,0,3.185,3.185,0,0,1-4.254,0,3.185,3.185,0,0,1-4.254,0,3.185,3.185,0,0,1-4.254,0,3.184,3.184,0,0,1-3.191.631v16.136H123.4V121.271h6.381v12.763h3.191V117.9A3.175,3.175,0,0,1,131.907,118.081Zm-11.7,11.7H104.254v-8.508h15.953Zm12.763-24.462H101.064L100,114.89a2.127,2.127,0,1,0,4.254,0,2.127,2.127,0,0,0,4.254,0,2.127,2.127,0,1,0,4.254,0,2.127,2.127,0,0,0,4.254,0,2.127,2.127,0,1,0,4.254,0,2.127,2.127,0,1,0,4.254,0,2.127,2.127,0,0,0,4.254,0,2.127,2.127,0,1,0,4.254,0Z" transform="translate(-74.554 -74.554)" fill="#ff7900" fill-rule="evenodd"/>
  </g>
</svg>
