<svg xmlns="http://www.w3.org/2000/svg" width="85" height="85" viewBox="0 0 85 85">
  <g id="Group_13380" data-name="Group 13380" transform="translate(0)">
    <circle id="Ellipse_26" data-name="Ellipse 26" cx="42.5" cy="42.5" r="42.5" transform="translate(0)" fill="#ffddbf"/>
    <path id="Path_159949" data-name="Path 159949" d="M10.889,29.037a3.63,3.63,0,1,0,3.63,3.63A3.64,3.64,0,0,0,10.889,29.037ZM0,0V3.63H3.63l6.533,13.793L7.622,21.778a6.448,6.448,0,0,0-.363,1.815,3.64,3.64,0,0,0,3.63,3.63l23.52-.176v-3.63l-22.794.176a.39.39,0,0,1-.363-.363v-.182l1.633-3.085,15.172-.176a3.31,3.31,0,0,0,3.085-1.815l6.533-11.8a1,1,0,0,0,.363-.907,1.715,1.715,0,0,0-1.815-1.815l-28.6.176L5.989,0ZM30.78,28.861a3.63,3.63,0,1,0,3.63,3.63A3.64,3.64,0,0,0,30.78,28.861Z" transform="translate(23.326 25.434)" fill="#ff7900"/>
  </g>
</svg>
