<svg xmlns="http://www.w3.org/2000/svg" width="41" height="40.506" viewBox="0 0 41 40.506">
  <g id="Group_39451" data-name="Group 39451" transform="translate(-22.126 -22.266)">
    <ellipse id="Ellipse_3313" data-name="Ellipse 3313" cx="20.5" cy="20" rx="20.5" ry="20" transform="translate(22.126 22.407)" fill="#fff"/>
    <path id="assistance_19371" d="M95.253,75a20.253,20.253,0,1,0,20.253,20.253A20.253,20.253,0,0,0,95.253,75Zm1.468,32.435a2.58,2.58,0,0,1-1.767.68,2.673,2.673,0,0,1-1.808-.671,2.351,2.351,0,0,1-.773-1.877,2.418,2.418,0,0,1,.747-1.8,2.524,2.524,0,0,1,1.835-.73,2.494,2.494,0,0,1,2.531,2.531A2.371,2.371,0,0,1,96.721,107.435Zm6.344-15.728a7.731,7.731,0,0,1-1.393,1.877q-.806.79-2.9,2.658a11.826,11.826,0,0,0-.925.926,3.77,3.77,0,0,0-.518.73,3.578,3.578,0,0,0-.263.662q-.093.331-.28,1.164a1.89,1.89,0,0,1-2.021,1.766,2.066,2.066,0,0,1-1.486-.577,2.268,2.268,0,0,1-.6-1.716,6.322,6.322,0,0,1,.441-2.471,6.259,6.259,0,0,1,1.172-1.834,26.822,26.822,0,0,1,1.97-1.878q1.086-.951,1.571-1.435a4.86,4.86,0,0,0,.815-1.079,2.607,2.607,0,0,0,.331-1.291,3,3,0,0,0-1.011-2.293,3.689,3.689,0,0,0-2.607-.934,3.607,3.607,0,0,0-2.752.943A7.518,7.518,0,0,0,91.116,89.7q-.578,1.919-2.192,1.919a2.154,2.154,0,0,1-1.605-.671,2.052,2.052,0,0,1-.654-1.452A6.141,6.141,0,0,1,87.7,86.229a7.975,7.975,0,0,1,3.023-2.743A9.51,9.51,0,0,1,95.362,82.4a9.9,9.9,0,0,1,4.348.909,7.057,7.057,0,0,1,2.913,2.471,6.059,6.059,0,0,1,1.028,3.4,5.25,5.25,0,0,1-.586,2.531Z" transform="translate(-52.735 -52.734)" fill="#ff7900" fill-rule="evenodd"/>
  </g>
</svg>
