<svg xmlns="http://www.w3.org/2000/svg" width="28.881" height="28.881" viewBox="0 0 28.881 28.881">
  <g id="Group_10049" data-name="Group 10049" transform="translate(-16 -16)">
    <path id="Path_27238" data-name="Path 27238" d="M8.664,23.105a2.888,2.888,0,1,0,2.888,2.888A2.9,2.9,0,0,0,8.664,23.105ZM0,0V2.888H2.888l5.2,10.975L6.065,17.329a5.131,5.131,0,0,0-.289,1.444,2.9,2.9,0,0,0,2.888,2.888H25.993V18.773H9.242a.311.311,0,0,1-.289-.289V18.34l1.3-2.455H20.939a2.634,2.634,0,0,0,2.455-1.444l5.2-9.386a.8.8,0,0,0,.289-.722,1.364,1.364,0,0,0-1.444-1.444H6.065L4.765,0ZM23.105,23.105a2.888,2.888,0,1,0,2.888,2.888A2.9,2.9,0,0,0,23.105,23.105Z" transform="translate(16 16)"/>
  </g>
</svg>
