<svg xmlns="http://www.w3.org/2000/svg" width="102" height="21.053" viewBox="0 0 102 21.053">
  <path id="lenovo-logo-2015-1_1_" data-name="lenovo-logo-2015-1 (1)" d="M45.251,5.931a6.647,6.647,0,0,0-5.216,2.563v0h0V6.2H35.643v16h4.392v-9.1a3.428,3.428,0,0,1,3.622-3.38,3.524,3.524,0,0,1,3.7,3.38v9.1h4.393V12.28a6.157,6.157,0,0,0-6.5-6.349M82.969,6.2,79,17.1,75.026,6.2H70.008L76.59,22.192H81.4L87.986,6.2Zm-60.44,4.819a4.086,4.086,0,0,1,3.379-1.594,3.675,3.675,0,0,1,3.4,2.238l-7.675,3.184a5.144,5.144,0,0,1,.891-3.828m8.439,6.259a6.679,6.679,0,0,1-4.591,1.695,4.867,4.867,0,0,1-3.543-1.3l11.23-4.659A8.671,8.671,0,0,0,32.146,8.55a8.026,8.026,0,0,0-6.319-2.62,8.194,8.194,0,0,0-8.472,8.27c0,4.828,3.651,8.269,8.956,8.269a10.537,10.537,0,0,0,7.434-3.055Zm-14.031.885H6.953V1.415H2.5V22.2H16.937ZM95.874,9.694a4.212,4.212,0,0,0-4.235,4.5,4.356,4.356,0,0,0,4.293,4.5,4.24,4.24,0,0,0,4.234-4.5,4.356,4.356,0,0,0-4.293-4.5m0,12.772A8.274,8.274,0,1,1,104.5,14.2a8.3,8.3,0,0,1-8.626,8.268M62.053,9.694a4.211,4.211,0,0,0-4.234,4.5,4.356,4.356,0,0,0,4.293,4.5,4.24,4.24,0,0,0,4.234-4.5,4.356,4.356,0,0,0-4.293-4.5m0,12.772A8.274,8.274,0,1,1,70.68,14.2a8.3,8.3,0,0,1-8.627,8.268" transform="translate(-2.5 -1.415)" fill="#e60012"/>
</svg>
