<svg xmlns="http://www.w3.org/2000/svg" width="105" height="105" viewBox="0 0 105 105">
  <g id="Master_Logo_RGB" transform="translate(0.4)">
    <rect id="Rectangle_7" data-name="Rectangle 7" width="105" height="105" transform="translate(-0.4)" fill="#ff7900"/>
    <path id="Path_6" data-name="Path 6" d="M95.8,233.04a8.748,8.748,0,0,1-4.9,1.476,4.118,4.118,0,0,1-4.41-4.316c0-3.325,3.058-5.088,9.358-5.8v-.825c0-1.081-.821-1.706-2.335-1.706a4.429,4.429,0,0,0-3.619,1.706l-2.636-1.506a7.262,7.262,0,0,1,6.334-2.9c3.871,0,6.026,1.676,6.026,4.406v10.771H96.153Zm-5.479-3.126a1.793,1.793,0,0,0,1.762,1.932A5.449,5.449,0,0,0,95.7,230.28v-3.517c-3.653.463-5.385,1.4-5.385,3.16Z" transform="translate(-54.481 -138.204)" fill="#fff"/>
    <path id="Path_7" data-name="Path 7" d="M129.54,219.854l3.235-.448.354,1.762c1.826-1.337,3.276-2.049,5.1-2.049,3.058,0,4.632,1.623,4.632,4.835V234.3h-3.905v-9.663c0-1.819-.475-2.636-1.883-2.636a5.771,5.771,0,0,0-3.657,1.649v10.658H129.54Z" transform="translate(-81.506 -138.173)" fill="#fff"/>
    <path id="Path_8" data-name="Path 8" d="M222.113,234.583c-4.38,0-6.993-2.813-6.993-7.7s2.636-7.762,6.929-7.762,6.835,2.73,6.835,7.562c0,.256-.03.512-.03.753h-9.893c.03,2.813,1.2,4.233,3.5,4.233a3.81,3.81,0,0,0,3.371-1.883l2.866,1.589C227.435,233.476,225.168,234.583,222.113,234.583Zm2.93-9.663a2.827,2.827,0,0,0-2.994-3.156c-1.762,0-2.866,1.13-3.013,3.156Z" transform="translate(-135.374 -138.173)" fill="#fff"/>
    <path id="Path_9" data-name="Path 9" d="M22.721,234.67c-3.868,0-7.351-2.463-7.351-7.841S18.854,219,22.721,219s7.351,2.467,7.351,7.841S26.585,234.67,22.721,234.67Zm0-12.375c-2.919,0-3.461,2.636-3.461,4.519s.542,4.538,3.461,4.538,3.461-2.636,3.461-4.538-.542-4.519-3.461-4.519Z" transform="translate(-9.77 -138.098)" fill="#fff"/>
    <path id="Path_10" data-name="Path 10" d="M61.53,219.493h3.717v1.747a5.758,5.758,0,0,1,4.094-2.052,3.248,3.248,0,0,1,.5.026v3.668h-.188c-1.7,0-3.563.264-4.143,1.586v9.882H61.53Z" transform="translate(-38.8 -138.214)" fill="#fff"/>
    <path id="Path_11" data-name="Path 11" d="M178.95,231.151c2.968-.023,3.216-3.039,3.216-5.012,0-2.32-1.13-4.21-3.242-4.21-1.4,0-2.971,1.024-2.971,4.372C175.953,228.138,176.081,231.17,178.95,231.151Zm6.975-11.72V233.5c0,2.486-.188,6.572-7.272,6.617-2.919,0-5.626-1.149-6.169-3.7l3.86-.621c.162.731.606,1.461,2.794,1.461,2.03,0,3.013-.972,3.013-3.3v-1.729l-.053-.053a3.907,3.907,0,0,1-3.837,2.162c-3.461,0-6.191-2.4-6.191-7.426,0-4.967,2.813-7.747,5.973-7.75,2.964,0,4.063,1.344,4.316,2.056h-.045l.32-1.778Z" transform="translate(-108.209 -138.197)" fill="#fff"/>
    <path id="Path_12" data-name="Path 12" d="M249.316,205.705H247.78v4.256h-.813v-4.256H245.43v-.655h3.886Zm6.4,4.256h-.81v-4.1h-.026l-1.608,4.1h-.512l-1.608-4.1h-.023v4.1h-.81v-4.9h1.25l1.465,3.728,1.442-3.728h1.239Z" transform="translate(-154.269 -129.145)" fill="#fff"/>
  </g>
</svg>
