<svg xmlns="http://www.w3.org/2000/svg" width="32.5" height="32.5" viewBox="0 0 32.5 32.5">
  <path id="My_Privileges_19371" d="M101.016,117.268v13.2a2.031,2.031,0,0,0,2.031,2.031h12.187V117.268Zm16.25,0V132.5h12.187a2.031,2.031,0,0,0,2.031-2.031v-13.2Zm13.2-9.141h-8a4.5,4.5,0,0,0,1.895-.536,4.062,4.062,0,0,0-4.033-7.053,3.828,3.828,0,0,0-1.493,1.48l-2.584,4.39-2.584-4.39a3.829,3.829,0,0,0-1.493-1.48,4.062,4.062,0,0,0-4.033,7.053,4.5,4.5,0,0,0,1.894.536h-8A2.031,2.031,0,0,0,100,110.159v5.078h15.234v-7.1h2.031v7.1H132.5v-5.078A2.031,2.031,0,0,0,130.469,108.128Zm-22.075-5.071a2.039,2.039,0,0,1,1.766-1.023h0a2,2,0,0,1,1,.269,1.819,1.819,0,0,1,.73.711l.01.018.011.018,1.8,3.054h-3.42a2.519,2.519,0,0,1-1.145-.276A2.034,2.034,0,0,1,108.394,103.057Zm12.191-.007.011-.018.01-.018a1.817,1.817,0,0,1,.73-.711,2,2,0,0,1,1-.269,2.031,2.031,0,0,1,1.011,3.795,2.52,2.52,0,0,1-1.145.276h-3.42Zm3.77,5.537a.1.1,0,0,0,0-.2.1.1,0,0,0,0,.2Z" transform="translate(-100 -100.003)" fill="#ff7900" fill-rule="evenodd"/>
</svg>
