<svg xmlns="http://www.w3.org/2000/svg" width="46.384" height="46.384" viewBox="0 0 46.384 46.384">
  <path id="My_Privileges_19371" d="M101.449,124.644v18.844a2.9,2.9,0,0,0,2.9,2.9h17.394V124.644Zm23.192,0v21.743h17.394a2.9,2.9,0,0,0,2.9-2.9V124.644ZM143.485,111.6H132.063a6.415,6.415,0,0,0,2.7-.765,5.8,5.8,0,0,0-5.756-10.065,5.464,5.464,0,0,0-2.131,2.112l-3.688,6.266-3.688-6.265a5.464,5.464,0,0,0-2.131-2.112,5.8,5.8,0,0,0-5.756,10.065,6.417,6.417,0,0,0,2.7.764H102.9a2.9,2.9,0,0,0-2.9,2.9v7.248h21.743V111.609h2.9v10.136h21.743V114.5A2.9,2.9,0,0,0,143.485,111.6Zm-31.506-7.237a2.909,2.909,0,0,1,2.521-1.46h0a2.853,2.853,0,0,1,1.434.384,2.6,2.6,0,0,1,1.042,1.015l.015.026.015.026,2.565,4.358H114.69a3.6,3.6,0,0,1-1.633-.394A2.9,2.9,0,0,1,111.979,104.362Zm17.4-.01.015-.026.015-.026a2.594,2.594,0,0,1,1.042-1.015,2.854,2.854,0,0,1,1.434-.384,2.9,2.9,0,0,1,1.443,5.416,3.6,3.6,0,0,1-1.633.394h-4.881Zm5.381,7.9a.145.145,0,0,0,0-.29.145.145,0,0,0,0,.29Z" transform="translate(-100 -100.003)" fill="#ff7900" fill-rule="evenodd"/>
</svg>
