<svg id="Orange_Consumer_Cloud" data-name="Orange Consumer Cloud" xmlns="http://www.w3.org/2000/svg" width="50.447" height="34.989" viewBox="0 0 50.447 34.989">
  <g id="CLOUD" transform="translate(0 0)">
    <path id="Color_Overlay" data-name="Color Overlay" d="M3.477,31.56a11.591,11.591,0,0,1,0-16.554,11.882,11.882,0,0,1,6.887-3.334A6.63,6.63,0,0,1,17,5.821a6.8,6.8,0,0,1,1.438.153A16.409,16.409,0,0,1,31.158,0,16.167,16.167,0,0,1,47.479,16.007a15.747,15.747,0,0,1-.364,3.376,8.653,8.653,0,0,1,3.332,6.81,8.818,8.818,0,0,1-8.9,8.731H13.115A12,12,0,0,1,3.477,31.56Z" transform="translate(0)" fill="#ff7900"/>
  </g>
  <g id="SYNC_ARROWS" data-name="SYNC ARROWS" transform="translate(20.286 5.378)">
    <g id="SYNC_ARROWS-2" data-name="SYNC ARROWS" transform="translate(0.83 0.176)">
      <path id="Path_1" data-name="Path 1" d="M598,329.179h5.743a1.436,1.436,0,0,0,1.436-1.436V322Z" transform="translate(-585.079 -320.564)" fill="#ff7900"/>
      <path id="Path_2" data-name="Path 2" d="M398.178,483h-5.743A1.436,1.436,0,0,0,391,484.436v5.743Z" transform="translate(-391 -471.514)" fill="#ff7900"/>
      <g id="Group_1" data-name="Group 1" transform="translate(0.417)">
        <path id="Path_3" data-name="Path 3" d="M402.339,306.179a5.744,5.744,0,0,1,9.949,0h4.659a10.052,10.052,0,0,0-19.266,0Z" transform="translate(-397.68 -299)" fill="#ff7900"/>
        <path id="Path_4" data-name="Path 4" d="M412.287,506a5.744,5.744,0,0,1-9.949,0H397.68a10.052,10.052,0,0,0,19.266,0Z" transform="translate(-397.68 -493.079)" fill="#ff7900"/>
      </g>
    </g>
    <path id="Color_Overlay-2" data-name="Color Overlay" d="M2.2,15.92,0,18.116V12.542a1.394,1.394,0,0,1,1.394-1.394H6.968L5.178,12.938a5.575,5.575,0,0,0,9.4-.4H19.1A9.756,9.756,0,0,1,2.2,15.92ZM12.542,8.361l1.789-1.789a5.575,5.575,0,0,0-9.4.4H.4A9.756,9.756,0,0,1,17.314,3.589l2.2-2.2V6.968a1.394,1.394,0,0,1-1.394,1.394Z" transform="translate(0 0)" fill="#fff"/>
  </g>
</svg>
