<svg xmlns="http://www.w3.org/2000/svg" width="47.385" height="53.022" viewBox="0 0 47.385 53.022">
  <path id="Orange_TV_Go" data-name="Orange TV Go" d="M17,46.867c-1.772,1.022-4.757-.061-5.779-1.833s-.466-4.9,1.306-5.921l0,0L35.169,26.037a6.194,6.194,0,0,0,2.9-6.877l7.459,4.813a3.7,3.7,0,0,1,1.852,3.208,4.37,4.37,0,0,1-2.186,3.4L17,46.868h0ZM34.912,16.889c1.771,1.023,2.327,4.15,1.3,5.921s-4.008,2.854-5.78,1.831l0,0L7.792,11.564a6.19,6.19,0,0,0-7.407.923L.823,3.618A3.7,3.7,0,0,1,2.675.41,4.368,4.368,0,0,1,6.712.6l28.2,16.286h0ZM0,16.36c0-2.044,2.43-4.088,4.475-4.088S8.95,14.316,8.95,16.361V42.515a6.192,6.192,0,0,0,4.5,5.955l-7.9,4.055a3.7,3.7,0,0,1-3.7,0A4.368,4.368,0,0,1,0,48.932V16.36H0Z" fill="#ff7900" fill-rule="evenodd"/>
</svg>
