<svg xmlns="http://www.w3.org/2000/svg" width="107.531" height="16.469" viewBox="0 0 107.531 16.469">
  <path id="Path_160027" data-name="Path 160027" d="M16.14,19.512a1.882,1.882,0,0,1,.027,1.147,1.345,1.345,0,0,1-1.492,1.04,1.376,1.376,0,0,1-1.544-1.386V18.819H9v1.173c0,3.437,2.691,4.476,5.6,4.476,2.771,0,5.062-.959,5.435-3.517A7.123,7.123,0,0,0,20,18.42c-.638-3.225-6.474-4.184-6.927-5.97a2.107,2.107,0,0,1-.027-.8,1.292,1.292,0,0,1,1.412-1.04A1.316,1.316,0,0,1,15.9,12v.96h3.837V11.864c0-3.358-3.011-3.864-5.2-3.864C11.8,8,9.586,8.906,9.16,11.411a5.473,5.473,0,0,0,.027,2.079C9.879,16.607,15.341,17.514,16.14,19.512ZM66.1,19.486a1.8,1.8,0,0,1,.027,1.119,1.329,1.329,0,0,1-1.492,1.013,1.354,1.354,0,0,1-1.518-1.386V18.766H59.036v1.172c0,3.384,2.664,4.423,5.541,4.423,2.745,0,5.01-.933,5.383-3.49a7,7,0,0,0-.028-2.505c-.639-3.2-6.421-4.131-6.847-5.915a2.071,2.071,0,0,1-.027-.8,1.245,1.245,0,0,1,1.385-1.013,1.308,1.308,0,0,1,1.412,1.385v.934h3.809V11.891c0-3.3-2.984-3.837-5.141-3.837-2.692,0-4.9.906-5.329,3.384a5.312,5.312,0,0,0,.027,2.051c.693,3.119,6.1,4.025,6.874,6Zm31.892,1.359L97.775,8.48h3.809V23.669H96.1L92.233,10.9l.213,12.764H88.662V8.48h5.7ZM28.9,9.6,26.771,23.83H22.615L25.439,8.48h6.847L35.11,23.83h-4.13Zm22.435,0L48.671,23.831h-3.89L42.144,9.6,42.037,23.83H38.2L38.52,8.48h6.261l1.945,11.991L48.672,8.48h6.26l.347,15.35H51.442Zm27.655,11.94a1.365,1.365,0,0,0,1.466-1.12,4.121,4.121,0,0,0,.027-.587V8.453h3.89V19.487c0,.292-.027.852-.027,1.012-.267,2.879-2.532,3.811-5.355,3.811S73.9,23.378,73.636,20.5a5.943,5.943,0,0,1-.027-1.012V8.453H77.5V19.832a4.284,4.284,0,0,0,.026.587,1.365,1.365,0,0,0,1.466,1.119Zm32.078-.161a1.453,1.453,0,0,0,1.572-1.12,2.156,2.156,0,0,0,.027-.587V17.434H111.1V15.195h5.435v4.131a8.08,8.08,0,0,1-.052,1.013c-.267,2.8-2.692,3.784-5.409,3.784s-5.142-.985-5.408-3.784a7.926,7.926,0,0,1-.054-1.013V12.85c0-.267.027-.746.054-1.013.346-2.878,2.664-3.784,5.408-3.784,2.717,0,5.116.906,5.382,3.784a7.327,7.327,0,0,1,.027,1.013v.506h-3.891V12.5a3.222,3.222,0,0,0-.052-.587,1.608,1.608,0,0,0-3.064,0,3.143,3.143,0,0,0-.054.719v7.035a4.314,4.314,0,0,0,.027.587,1.523,1.523,0,0,0,1.626,1.119Z" transform="translate(-9 -8)"/>
</svg>
