<svg xmlns="http://www.w3.org/2000/svg" width="57.335" height="57.335" viewBox="0 0 57.335 57.335">
  <path id="Path_159968" data-name="Path 159968" d="M95.064,93.212h0a3.891,3.891,0,0,0-5.292.2l-1.558,1.56a3.9,3.9,0,0,0-.287,5.194h0l12.467,15.6h0a3.893,3.893,0,0,0,6.084,0h0l24.934-31.19h0a3.9,3.9,0,0,0-5.705-5.279h0L102.656,101.63Zm33.857-3.123-4.716,5.9a21.936,21.936,0,1,1-7.624-10.032l4.9-4.747a28.627,28.627,0,1,0,7.439,8.883Z" transform="translate(-75 -74.999)" fill="#fff" fill-rule="evenodd"/>
</svg>
