<svg xmlns="http://www.w3.org/2000/svg" width="57.335" height="57.335" viewBox="0 0 57.335 57.335">
  <path id="SHAPE" d="M115.971,83.432,100.619,100.06h0a5.059,5.059,0,1,0,8.445,4.876h0ZM104.167,75a28.667,28.667,0,1,0,28.667,28.667A28.667,28.667,0,0,0,104.167,75Zm23.049,33.806-4.659-2.7a18.712,18.712,0,0,0,.159-2.437,18.479,18.479,0,0,0-1.7-7.77l4.4-2.539q.268.553.51,1.121A23.76,23.76,0,0,1,127.216,108.806Zm-44.8-14.327a23.629,23.629,0,0,1,41.314-4.042l-4.4,2.539a18.657,18.657,0,0,0-3.461-3.7l-5.189,16.161A6.745,6.745,0,1,1,99.386,98.91L110.94,86.394a18.559,18.559,0,0,0-25.323,17.273,18.731,18.731,0,0,0,.159,2.435l-4.658,2.7a23.76,23.76,0,0,1,1.293-14.327Z" transform="translate(-75.5 -75)" fill="#fff" fill-rule="evenodd"/>
</svg>
