<svg id="Vector_Smart_Object_copy" data-name="Vector Smart Object copy" xmlns="http://www.w3.org/2000/svg" width="122.431" height="32.015" viewBox="0 0 122.431 32.015">
  <path id="Path_1" data-name="Path 1" d="M71.891,598.885H54.275a3.583,3.583,0,0,0,0,7.166h8.982L48.8,620.535a3.58,3.58,0,0,0,5.058,5.067l14.458-14.484v9a3.577,3.577,0,1,0,7.154,0V602.468a3.58,3.58,0,0,0-3.577-3.583" transform="translate(-47.75 -595.932)" fill="#fff"/>
  <path id="Path_2" data-name="Path 2" d="M109.789,621.135h17.616a3.583,3.583,0,0,0,0-7.166h-8.982l14.458-14.484a3.58,3.58,0,0,0-5.058-5.067L113.366,608.9v-9a3.577,3.577,0,1,0-7.153,0v17.648a3.58,3.58,0,0,0,3.577,3.583" transform="translate(-74.921 -593.367)" fill="#ff8300"/>
  <g id="Group_39216" data-name="Group 39216" transform="translate(63.001 0)">
    <path id="Path_3" data-name="Path 3" d="M177.656,598.908c3.966,0,6.3,2.846,6.3,6.5a6.3,6.3,0,1,1-12.6,0c0-3.657,2.333-6.5,6.3-6.5m0,10.626c2.531,0,3.482-2.07,3.482-4.123,0-2.156-.952-4.226-3.482-4.226s-3.482,2.07-3.482,4.226c0,2.053.952,4.123,3.482,4.123" transform="translate(-171.356 -598.908)" fill="#fff"/>
    <path id="Path_4" data-name="Path 4" d="M192.6,604.685h2.423v1.656h.036a3.287,3.287,0,0,1,2.962-1.9,1.976,1.976,0,0,1,.556.086v2.277a4.834,4.834,0,0,0-.916-.086c-1.866,0-2.512,1.294-2.512,2.864v4.02H192.6Z" transform="translate(-178.8 -600.993)" fill="#fff"/>
    <path id="Path_5" data-name="Path 5" d="M202.331,607.428c.144-2.294,2.28-2.985,4.361-2.985,1.849,0,4.074.4,4.074,2.536v4.641a4.41,4.41,0,0,0,.323,1.984H208.5a3.492,3.492,0,0,1-.179-.862,4.358,4.358,0,0,1-3.123,1.1c-1.759,0-3.159-.845-3.159-2.674,0-2.018,1.58-2.5,3.159-2.709,1.561-.224,3.016-.172,3.016-1.173,0-1.052-.754-1.208-1.651-1.208-.97,0-1.6.379-1.687,1.346Zm5.887,1.811a5.24,5.24,0,0,1-2.118.518c-.79.155-1.508.414-1.508,1.311,0,.914.736,1.139,1.561,1.139a1.847,1.847,0,0,0,2.064-2.053Z" transform="translate(-182.11 -600.993)" fill="#fff"/>
    <path id="Path_6" data-name="Path 6" d="M217.771,604.685h2.423v1.242h.054a3.344,3.344,0,0,1,2.835-1.484c2.711,0,3.393,1.466,3.393,3.674V613.6h-2.549v-5.037c0-1.466-.449-2.191-1.633-2.191-1.382,0-1.974.742-1.974,2.553V613.6h-2.549Z" transform="translate(-187.622 -600.993)" fill="#fff"/>
    <path id="Path_7" data-name="Path 7" d="M242,613.034c0,1.466-.539,3.95-4.81,3.95-1.831,0-3.967-.828-4.092-2.863h2.53a1.724,1.724,0,0,0,1.9,1.225,1.932,1.932,0,0,0,2.046-2.208v-1.173h-.036a3.173,3.173,0,0,1-2.782,1.38c-2.782,0-3.967-2.036-3.967-4.486,0-2.312,1.382-4.416,3.985-4.416a2.916,2.916,0,0,1,2.764,1.432h.036v-1.19H242Zm-2.423-4c0-1.449-.52-2.743-2.172-2.743-1.436,0-2.064,1.208-2.064,2.536,0,1.277.5,2.674,2.064,2.674a2.223,2.223,0,0,0,2.172-2.466" transform="translate(-192.886 -600.993)" fill="#fff"/>
    <path id="Path_8" data-name="Path 8" d="M251.147,609.74a2.058,2.058,0,0,0,2.28,2.259,2.106,2.106,0,0,0,2.01-1.156h2.244a4.163,4.163,0,0,1-4.344,3,4.441,4.441,0,0,1-4.738-4.693,4.559,4.559,0,0,1,4.738-4.709c3.159,0,4.684,2.553,4.5,5.3Zm4.146-1.553c-.233-1.242-.79-1.9-2.028-1.9a1.971,1.971,0,0,0-2.118,1.9Z" transform="translate(-198.426 -600.993)" fill="#fff"/>
    <path id="Path_9" data-name="Path 9" d="M171.357,625.476h3.966l3,8.47h.036l2.836-8.47h3.966v12.317h-2.638v-8.729h-.036l-3.141,8.729h-2.171l-3.141-8.643H174v8.643h-2.638Z" transform="translate(-171.356 -608.918)" fill="#fff"/>
    <path id="Path_10" data-name="Path 10" d="M199.128,630.542a4.7,4.7,0,1,1-4.792,4.71,4.467,4.467,0,0,1,4.792-4.71m0,7.556c1.741,0,2.261-1.432,2.261-2.846,0-1.432-.521-2.864-2.261-2.864-1.723,0-2.243,1.432-2.243,2.864,0,1.414.52,2.846,2.243,2.846" transform="translate(-179.409 -610.827)" fill="#fff"/>
    <path id="Path_11" data-name="Path 11" d="M210.8,630.783h2.423v1.242h.054a3.346,3.346,0,0,1,2.835-1.484c2.711,0,3.393,1.467,3.393,3.675V639.7H216.96v-5.037c0-1.466-.448-2.191-1.633-2.191-1.382,0-1.974.742-1.974,2.553V639.7H210.8Z" transform="translate(-185.181 -610.827)" fill="#fff"/>
    <path id="Path_12" data-name="Path 12" d="M228.262,635.838a2.058,2.058,0,0,0,2.279,2.259,2.107,2.107,0,0,0,2.01-1.155H234.8a4.164,4.164,0,0,1-4.344,3,4.441,4.441,0,0,1-4.738-4.693,4.559,4.559,0,0,1,4.738-4.709c3.159,0,4.684,2.553,4.5,5.3Zm4.146-1.553c-.233-1.242-.79-1.9-2.028-1.9a1.97,1.97,0,0,0-2.118,1.9Z" transform="translate(-190.405 -610.827)" fill="#fff"/>
    <path id="Path_13" data-name="Path 13" d="M245.253,640.969c-.557,1.432-1.436,2.018-3.195,2.018-.52,0-1.041-.034-1.562-.086v-2.018a14.03,14.03,0,0,0,1.49.086,1.149,1.149,0,0,0,.88-1.673l-3.266-8.367h2.728l2.1,6.107h.036l2.028-6.107h2.639Z" transform="translate(-195.272 -610.973)" fill="#fff"/>
  </g>
</svg>
