<svg xmlns="http://www.w3.org/2000/svg" width="20.8" height="28" viewBox="0 0 20.8 28">
  <path id="voucher" d="M187.79,64.073a3.2,3.2,0,0,0-4.666-.121h0l0,0q-.055.056-.107.114L175,72.6V87.8a3.2,3.2,0,0,0,3.2,3.2h14.4a3.2,3.2,0,0,0,3.2-3.2V72.6ZM185.4,66.6a2,2,0,1,1-2,2A2,2,0,0,1,185.4,66.6Zm8.16,14.752-2.82,1.33,1.731,2.47-3.153-.166.178,2.948-2.642-1.618-1.422,2.636-1.422-2.636-2.642,1.618.178-2.948-3.153.166,1.731-2.47-2.82-1.33,2.82-1.33-1.731-2.47,3.153.166-.178-2.948,2.642,1.618,1.422-2.636,1.422,2.636L189.5,74.77l-.178,2.948,3.153-.166-1.731,2.47Z" transform="translate(-175 -63)" fill-rule="evenodd"/>
</svg>
