<svg xmlns="http://www.w3.org/2000/svg" width="52.915" height="52.918" viewBox="0 0 52.915 52.918">
  <g id="Xiaomi_logo" transform="translate(-9.661 -106.325)">
    <path id="Path_160713" data-name="Path 160713" d="M332.419-147.185h-48.9a2.009,2.009,0,0,1-2.009-2.009v-48.9a2.008,2.008,0,0,1,2.009-2.008h48.9a2.008,2.008,0,0,1,2.009,2.008v48.9a2.009,2.009,0,0,1-2.009,2.009" transform="translate(-271.851 306.428)" fill="#ff6700" fill-rule="evenodd"/>
    <g id="Group_13516" data-name="Group 13516" transform="translate(-271.851 306.428)">
      <path id="Path_160714" data-name="Path 160714" d="M323-183.459h-4.163a.32.32,0,0,0-.323.316v19a.319.319,0,0,0,.323.315H323a.321.321,0,0,0,.323-.315v-19a.321.321,0,0,0-.323-.316" fill="#fff"/>
      <path id="Path_160715" data-name="Path 160715" d="M308.791-183.459H292.933a.319.319,0,0,0-.322.316v19a.318.318,0,0,0,.322.315H297.1a.321.321,0,0,0,.324-.315v-14.908a.319.319,0,0,1,.322-.315h8.97a3.041,3.041,0,0,1,3.238,3.178v12.045a.32.32,0,0,0,.323.315h4.161a.32.32,0,0,0,.323-.315v-13.475a5.383,5.383,0,0,0-1.568-4.117,5.622,5.622,0,0,0-4.4-1.72" fill="#fff"/>
      <path id="Path_160716" data-name="Path 160716" d="M305.874-175.893H301.5a.321.321,0,0,0-.325.315v11.432a.321.321,0,0,0,.325.314h4.372a.319.319,0,0,0,.322-.314v-11.432a.319.319,0,0,0-.322-.315" fill="#fff"/>
    </g>
  </g>
</svg>
